<?xml version="1.0"?>
<svg xmlns="http://www.w3.org/2000/svg" xmlns:xlink="http://www.w3.org/1999/xlink" xmlns:svgjs="http://svgjs.com/svgjs" version="1.1" width="512" height="512" x="0" y="0" viewBox="0 0 512 512" style="enable-background:new 0 0 512 512" xml:space="preserve" class=""><g><g xmlns="http://www.w3.org/2000/svg"><path d="m500.896 362.685-166-300c0-.015 0-.015 0-.015-15.834-28.784-46.069-46.67-78.896-46.67-32.842 0-63.076 17.886-78.896 46.685l-166 300c-7.266 13.198-11.104 28.183-11.104 43.315 0 49.629 40.371 90 90 90h166 166c49.629 0 90-40.371 90-90 0-15.132-3.838-30.117-11.104-43.315z" fill="#ffdf40" data-original="#f3f5f9" style="" class=""/><path d="m512 406c0-15.132-3.838-30.117-11.104-43.315l-166-300c0-.015 0-.015 0-.015-15.834-28.784-46.069-46.67-78.896-46.67v480h166c49.629 0 90-40.371 90-90z" fill="#ffbe40" data-original="#e1e6f0" style="" class=""/><path d="m474.617 377.128-166-300v.015c-10.576-19.219-30.732-31.143-52.617-31.143-21.899 0-42.056 11.924-52.617 31.128l-166 300c-4.834 8.789-7.383 18.779-7.383 28.872 0 33.091 26.909 60 60 60h166 166c33.091 0 60-26.909 60-60 0-10.093-2.549-20.083-7.383-28.872z" fill="#ffdf40" data-original="#ffdf40" style="" class=""/><path d="m482 406c0-10.093-2.549-20.083-7.383-28.872l-166-300v.015c-10.576-19.219-30.732-31.143-52.617-31.143v420h166c33.091 0 60-26.909 60-60z" fill="#ffbe40" data-original="#ffbe40" style="" class=""/><g fill="#4d3535"><circle cx="256" cy="391" r="45" fill="#4d3535" data-original="#4d3535" style=""/><path d="m256 106c-24.814 0-45 20.186-45 45v120c0 24.814 20.186 45 45 45s45-20.186 45-45v-120c0-24.814-20.186-45-45-45z" fill="#4d3535" data-original="#4d3535" style=""/></g><g fill="#331e1e"><path d="m301 391c0-24.814-20.186-45-45-45v90c24.814 0 45-20.186 45-45z" fill="#331e1e" data-original="#331e1e" style=""/><path d="m301 271v-120c0-24.814-20.186-45-45-45v210c24.814 0 45-20.186 45-45z" fill="#331e1e" data-original="#331e1e" style=""/></g></g></g></svg>
