<?xml version="1.0" encoding="iso-8859-1"?>
<!-- Generator: Adobe Illustrator 19.0.0, SVG Export Plug-In . SVG Version: 6.00 Build 0)  -->
<svg version="1.1" id="Capa_1" xmlns="http://www.w3.org/2000/svg" xmlns:xlink="http://www.w3.org/1999/xlink" x="0px" y="0px"
	 viewBox="0 0 512.247 512.247" style="enable-background:new 0 0 512.247 512.247;" xml:space="preserve">
<path style="fill:#4CAF50;" d="M245.138,6.592c-1.649-3.989-5.539-6.591-9.856-6.592C155.239,0,82.215,25.237,39.975,67.477
	c-38.788,37.701-39.669,99.708-1.967,138.496s99.708,39.669,138.496,1.967c0.665-0.646,1.321-1.302,1.967-1.967
	c18.261-18.261,23.808-51.989,29.675-87.68c6.4-38.4,12.8-78.293,34.667-100.075C245.869,15.171,246.787,10.581,245.138,6.592z"/>
<path style="fill:#CFD8DC;" d="M256.615,512c-136.064,0-224-87.915-224-224c3.233-75.298,34.83-146.586,88.448-199.552
	c4.237-4.092,10.99-3.975,15.083,0.262c3.992,4.134,3.992,10.687,0,14.82C86.851,152.67,57.559,218.362,53.949,287.872
	c0,98.112,53.333,202.795,202.667,202.795c137.067,0,159.296-114.347,160.171-119.232c1.094-5.789,6.674-9.594,12.462-8.5
	c5.724,1.082,9.522,6.557,8.53,12.297C418.667,458.799,342.221,516.512,256.615,512z"/>
<g>
	<path style="fill:#90A4AE;" d="M384.615,256c-5.891,0-10.667-4.776-10.667-10.667V160c0-5.891,4.776-10.667,10.667-10.667
		c5.891,0,10.667,4.776,10.667,10.667v85.333C395.282,251.224,390.506,256,384.615,256z"/>
	<path style="fill:#90A4AE;" d="M469.949,256c-5.891,0-10.667-4.776-10.667-10.667V160c0-5.891,4.776-10.667,10.667-10.667
		c5.891,0,10.667,4.776,10.667,10.667v85.333C480.615,251.224,475.84,256,469.949,256z"/>
</g>
<path style="fill:#455A64;" d="M491.282,234.667h-128c-5.891,0-10.667,4.776-10.667,10.667v64c0,41.237,33.429,74.667,74.667,74.667
	s74.667-33.429,74.667-74.667v-64C501.949,239.442,497.173,234.667,491.282,234.667z"/>
<g>
</g>
<g>
</g>
<g>
</g>
<g>
</g>
<g>
</g>
<g>
</g>
<g>
</g>
<g>
</g>
<g>
</g>
<g>
</g>
<g>
</g>
<g>
</g>
<g>
</g>
<g>
</g>
<g>
</g>
</svg>
