<svg width="841.9" height="340.7" xmlns="http://www.w3.org/2000/svg" text-rendering="geometricPrecision" shape-rendering="geometricPrecision" image-rendering="optimizeQuality" enable-background="new 0 0 841.9 340.7">

 <g>
  <title>Layer 1</title>
  <g id="svg_3" fill="#ef4635">
   <path id="svg_4" d="m93,291.23838c15.5,-64.3 -2.9,-66.5 -2.9,-97.7c0,-10.4 8.2,-35.3 9.4,-47.4c2.8,-27.8 -4.1,-20.4 16.2,-41l1.2,-28.6c10.2,-9.8 15.3,-18.6 27.8,-15.5c7.6,22.6 -6.8,15.5 -8.2,41.9c8.5,11.3 14.2,12.4 20.6,26.6c8.1,18 2.3,17.8 17.6,32.9c22.5,2.6 36.1,2.7 52.2,-13.5c1.7,-17.3 -8.3,-15.8 1.9,-31.7c7,-10.9 13.9,-16.8 27,-12.4c4.3,17 -15,20.5 -9,39.4c25.9,2.6 31.9,-33.1 51.7,-34.9c0,38.1 -39.8,43.1 -40.7,74.1c-0.6,19.4 16.6,72.8 34,84.2c15.3,-23.5 31.8,-49.1 33.7,-77.5c13.3,-193.8 -243.1,-229.1 -291.8,-59.4c-2.5,8.7 -4,17.5 -4.7,26.3l0,22.5c4.3,55.8 38.7,104.8 64,111.7z"/>
   <path id="svg_5" d="m168,317.23838c69.3,8.2 62,-13.2 48.3,-92.1c-5.4,-31.1 -11.7,-47.5 -48.6,-44.6c-23,27.3 -11.4,80.5 -10.6,103.8c0.6,18.4 -2.5,19.6 10.9,32.9zm79.7,-19c11.6,-1.4 13.6,-3.8 23,-11.3c1.5,-15.9 -9.4,-41.5 -26.4,-46.6c-8,15.4 -5.7,42.8 3.4,57.9zm-114.2,13.2c0,-19.4 2.4,-59.5 -7.6,-73.3c-13.3,3.9 -9.2,15.3 -9.3,39.6c-0.1,17.8 -3.4,31.9 16.9,33.7z"/>
  </g>
  <text font-style="normal" font-weight="normal" xml:space="preserve" text-anchor="start" font-family="sans-serif" font-size="157" id="svg_6" y="226.84999" x="352.57287" stroke-width="0" stroke="#cba659" fill="#ef4635">KASPI</text>
 </g>
</svg>