<svg id="Layer_1" enable-background="new 0 0 480 480" height="512" viewBox="0 0 480 480" width="512" xmlns="http://www.w3.org/2000/svg"><path d="m16 231.5v62c0 8.822 7.178 16 16 16 4.418 0 8 3.582 8 8s-3.582 8-8 8c-17.645 0-32-14.355-32-32v-62c0-17.645 14.355-32 32-32 4.418 0 8 3.582 8 8s-3.582 8-8 8c-8.822 0-16 7.178-16 16zm432-32c-4.418 0-8 3.582-8 8s3.582 8 8 8c8.822 0 16 7.178 16 16v62c0 8.822-7.178 16-16 16-4.418 0-8 3.582-8 8s3.582 8 8 8c17.645 0 32-14.355 32-32v-62c0-17.645-14.355-32-32-32zm-348-41v10h2c17.645 0 32 14.355 32 32v124c0 17.645-14.355 32-32 32h-16c-17.645 0-32-14.355-32-32v-124c0-16.972 13.284-30.895 30-31.931v-10.069c0-86.019 69.981-156 156-156s156 69.981 156 156v10.069c16.716 1.037 30 14.959 30 31.931v124c0 17.645-14.355 32-32 32h-16c-17.645 0-32-14.355-32-32v-124c0-17.645 14.355-32 32-32h2v-10c0-77.196-62.804-140-140-140s-140 62.804-140 140zm294 26h-16c-8.822 0-16 7.178-16 16v124c0 8.822 7.178 16 16 16h16c8.822 0 16-7.178 16-16v-124c0-8.822-7.178-16-16-16zm-308 0c-8.822 0-16 7.178-16 16v124c0 8.822 7.178 16 16 16h16c8.822 0 16-7.178 16-16v-124c0-8.822-7.178-16-16-16zm371 171c0 52.935-43.065 96-96 96h-14.96c-3.608 14.899-17.049 26-33.04 26-18.748 0-34-15.252-34-34s15.252-34 34-34c15.992 0 29.432 11.101 33.04 26h14.96c44.112 0 80-35.888 80-80 0-4.418 3.582-8 8-8s8 3.582 8 8zm-126 88c0-9.925-8.075-18-18-18s-18 8.075-18 18 8.075 18 18 18 18-8.075 18-18zm-19.32-173.593c1.237-4.242-1.199-8.684-5.44-9.92-4.24-1.24-8.683 1.198-9.92 5.439-7.253 24.87-30.413 42.24-56.32 42.24s-49.066-17.37-56.32-42.24c-1.237-4.24-5.678-6.682-9.92-5.439-4.242 1.236-6.677 5.678-5.44 9.92 9.232 31.653 38.708 53.76 71.68 53.76s62.448-22.106 71.68-53.76zm-122.347-78.074c8.73 0 15.833 7.104 15.833 15.834s-7.103 15.833-15.833 15.833-15.833-7.103-15.833-15.833 7.103-15.834 15.833-15.834zm-.166 15.834c0 .185.333.184.333 0s-.333-.184-.333 0zm101.5-15.334c8.455 0 15.333 6.879 15.333 15.334s-6.878 15.333-15.333 15.333-15.333-6.878-15.333-15.333 6.878-15.334 15.333-15.334zm-.667 15.334c0 .88 1.333.88 1.333 0 0-.883-1.333-.883-1.333 0z"/></svg>