<?xml version="1.0" encoding="UTF-8"?>
<svg xmlns="http://www.w3.org/2000/svg" id="Icons" viewBox="0 0 74 74" width="512" height="512"><path d="M40.925,72h-7.85a2.006,2.006,0,0,1-1.982-1.735l-.812-6.083a27.771,27.771,0,0,1-7.748-3.213L17.655,64.7a2.005,2.005,0,0,1-2.629-.175L9.477,58.974A2.006,2.006,0,0,1,9.3,56.345l3.731-4.878a27.708,27.708,0,0,1-3.214-7.749l-6.082-.811A2.007,2.007,0,0,1,2,40.924V33.076a2.007,2.007,0,0,1,1.736-1.983l6.082-.811a27.708,27.708,0,0,1,3.214-7.749L9.3,17.655a2.005,2.005,0,0,1,.175-2.629l5.549-5.549A2.007,2.007,0,0,1,17.655,9.3l4.878,3.729a27.771,27.771,0,0,1,7.748-3.213l.812-6.083A2.006,2.006,0,0,1,33.075,2h7.85a2.006,2.006,0,0,1,1.982,1.735l.812,6.083a27.771,27.771,0,0,1,7.748,3.213L56.345,9.3a2,2,0,0,1,2.629.175l5.549,5.549a2.006,2.006,0,0,1,.176,2.629l-3.731,4.878a27.708,27.708,0,0,1,3.214,7.749l6.082.811A2.007,2.007,0,0,1,72,33.076v7.848a2.007,2.007,0,0,1-1.736,1.983l-6.082.811a27.708,27.708,0,0,1-3.214,7.749l3.73,4.878a2.005,2.005,0,0,1-.175,2.629l-5.549,5.549a2,2,0,0,1-2.629.175l-4.878-3.729a27.771,27.771,0,0,1-7.748,3.213l-.812,6.083A2.006,2.006,0,0,1,40.925,72ZM22.475,58.754a1.006,1.006,0,0,1,.539.158A25.775,25.775,0,0,0,31.4,62.388a1,1,0,0,1,.777.844l.9,6.768h7.85l.9-6.768a1,1,0,0,1,.777-.844,25.775,25.775,0,0,0,8.382-3.476,1,1,0,0,1,1.147.048l5.427,4.149,5.549-5.549L58.96,52.133a1,1,0,0,1-.049-1.146A25.782,25.782,0,0,0,62.388,42.6a1,1,0,0,1,.844-.777l6.768-.9V33.076l-6.768-.9a1,1,0,0,1-.844-.777,25.782,25.782,0,0,0-3.477-8.383,1,1,0,0,1,.049-1.146l4.15-5.427-5.55-5.549L52.133,15.04a1,1,0,0,1-1.147.048A25.775,25.775,0,0,0,42.6,11.612a1,1,0,0,1-.777-.844L40.925,4h-7.85l-.9,6.768a1,1,0,0,1-.777.844,25.775,25.775,0,0,0-8.382,3.476,1,1,0,0,1-1.147-.048L16.44,10.891,10.891,16.44l4.149,5.427a1,1,0,0,1,.049,1.146A25.782,25.782,0,0,0,11.612,31.4a1,1,0,0,1-.844.777L4,33.076v7.848l6.768.9a1,1,0,0,1,.844.777,25.782,25.782,0,0,0,3.477,8.383,1,1,0,0,1-.049,1.146L10.89,57.56l5.55,5.549,5.427-4.149A1,1,0,0,1,22.475,58.754Z"/><path d="M37,58A21,21,0,1,1,58,37,21.024,21.024,0,0,1,37,58Zm0-40A19,19,0,1,0,56,37,19.021,19.021,0,0,0,37,18Z"/><path d="M53.7,49a1,1,0,0,1-.837-.451,18.994,18.994,0,0,0-31.728,0,1,1,0,0,1-1.672-1.1,20.994,20.994,0,0,1,35.072,0A1,1,0,0,1,53.7,49Z"/><path d="M37,40a7.5,7.5,0,1,1,7.5-7.5A7.508,7.508,0,0,1,37,40Zm0-13a5.5,5.5,0,1,0,5.5,5.5A5.506,5.506,0,0,0,37,27Z"/></svg>
