<svg id="Layer_1" enable-background="new 0 0 480 480" height="512" viewBox="0 0 480 480" width="512" xmlns="http://www.w3.org/2000/svg"><path d="m111 247c0 4.418-3.582 8-8 8h-27c-4.418 0-8-3.582-8-8s3.582-8 8-8h27c4.418 0 8 3.582 8 8zm369-78v186c0 17.645-14.355 32-32 32h-10.695c-3.81 22.117-23.117 39-46.305 39-25.916 0-47-21.084-47-47s21.084-47 47-47c23.188 0 42.495 16.883 46.305 39h10.695c8.822 0 16-7.178 16-16v-81h-102.75c-22.745 0-41.25-18.505-41.25-41.25v-55.75c0-4.418 3.582-8 8-8s8 3.582 8 8v55.75c0 13.923 11.327 25.25 25.25 25.25h102.75v-89c0-8.822-7.178-16-16-16h-152c-8.822 0-16 7.178-16 16v107c0 17.645-14.355 32-32 32-23.713 0-207.806 0-216 0-8.822 0-16 7.178-16 16v31c0 4.418-3.582 8-8 8s-8-3.582-8-8v-31c0-17.085 13.459-31.085 30.33-31.956-2.747-4.721-4.33-10.2-4.33-16.044v-190c0-17.645 14.355-32 32-32h190c17.645 0 32 14.355 32 32v26c0 4.418-3.582 8-8 8s-8-3.582-8-8v-26c0-8.822-7.178-16-16-16h-123v48.449c0 4.411 3.589 8 8 8h41c4.411 0 8-3.589 8-8v-25.449c0-4.418 3.582-8 8-8s8 3.582 8 8v25.449c0 13.234-10.767 24-24 24h-41c-13.233 0-24-10.766-24-24v-48.449h-51c-8.822 0-16 7.178-16 16v190c0 8.822 7.178 16 16 16h190c8.822 0 16-7.178 16-16v-107c0-17.645 14.355-32 32-32h152c17.645 0 32 14.355 32 32zm-58 210c0-17.093-13.906-31-31-31s-31 13.907-31 31 13.906 31 31 31 31-13.907 31-31zm-213 0c0 25.916-21.084 47-47 47-16.223 0-30.55-8.262-39-20.799-8.45 12.537-22.777 20.799-39 20.799-25.916 0-47-21.084-47-47s21.084-47 47-47c16.223 0 30.55 8.262 39 20.799 8.45-12.537 22.777-20.799 39-20.799 25.916 0 47 21.084 47 47zm-94 0c0-17.093-13.906-31-31-31s-31 13.907-31 31 13.906 31 31 31 31-13.907 31-31zm78 0c0-17.093-13.906-31-31-31s-31 13.907-31 31 13.906 31 31 31 31-13.907 31-31zm126-8h-85c-4.418 0-8 3.582-8 8s3.582 8 8 8h85c4.418 0 8-3.582 8-8s-3.582-8-8-8z"/></svg>