<svg width="1920" height="503" xmlns="http://www.w3.org/2000/svg">
 <g id="Layer_1">
  <title>Layer 1</title>
  <g stroke="null" id="svg_1">
   <g stroke="null" id="svg_2">
    <g stroke="null" transform="matrix(0.782229 0.397073 -0.398565 0.7793 89.1222 -59.2529)" id="svg_3" fill="#57a4ff">
     <path stroke="null" id="svg_4" d="m192.19757,160.91601l84.1532,0l0,8.70328l-84.1532,0l0,-8.70328z"/>
     <path stroke="null" id="svg_5" d="m266.33253,217.48732l-64.11672,0l2.2541,-8.70328l59.85897,0l2.00365,8.70328z"/>
     <circle stroke="null" id="svg_6" cx="266.33253" cy="187.02585" r="4.00729"/>
    </g>
    <path stroke="null" id="svg_7" d="m313.34639,247.02536l-1.78136,1.1525l-46.10454,-45.57111a1.47525,1.59602 0 0 0 -2.2389,-0.30153l-32.4555,20.99794a1.47525,1.59602 0 0 0 -0.63414,2.16033l23.03532,60.49635l-1.78136,1.1525a1.47525,1.59602 0 0 0 -0.43489,2.55047l4.16145,6.38408a1.47525,1.59602 0 0 0 2.51561,0.64157l25.07925,-16.22568l6.91711,10.61153l-1.30618,22.06407l-5.00847,3.24036a1.47525,1.59602 0 0 0 -0.66176,2.08176l2.5018,7.45784a1.47525,1.59602 0 0 0 2.74249,1.11028l47.208,-30.54246a1.47525,1.59602 0 0 0 0.13834,-2.90888l-5.6367,-5.42963a1.47525,1.59602 0 0 0 -2.21907,-0.28316l-5.19288,3.35967l-20.76355,-7.78548l-6.91711,-10.61153l16.22775,-10.49897l4.16145,6.38408a1.55841,1.68599 0 0 0 0.19639,0.25302a4.42575,4.78806 0 1 0 2.90625,-1.88027a1.55841,1.68599 0 0 0 -0.15214,-0.28165l-4.16145,-6.38408l5.901,-3.81781a1.47525,1.59602 0 0 0 0.43489,-2.55047l-4.16145,-6.38408a1.47525,1.59602 0 0 0 -2.51561,-0.64157l-0.00001,0zm-79.33045,-21.28657l30.11723,-19.48513l44.40022,43.8856l-52.33449,33.85918l-22.18295,-58.25965l-0.00001,0zm94.29511,66.06342l2.81835,2.71482l-43.3705,28.05969l-1.2509,-3.72892l41.80305,-27.04558zm-9.89955,1.86655l-26.31477,17.02503l1.17114,-19.76149a1.48041,1.60161 0 0 0 -0.32752,-1.2063l-7.28254,-11.17214l5.901,-3.81781l7.28254,11.17214a1.48041,1.60161 0 0 0 0.97294,0.78873l18.59721,6.97184l-0.00001,0zm2.55861,-22.07734a1.47525,1.59602 0 1 1 -2.51561,-0.64157a1.47728,1.59821 0 0 1 2.51561,0.64157zm-4.93751,-17.22753l-59.00999,38.17807l-2.08072,-3.19204l59.00999,-38.17807l2.08072,3.19204z" fill="#004fac"/>
    <path stroke="null" d="m242.02329,174.18587l-1.89253,-0.96068l16.56178,-62.56378a1.56731,1.69562 0 0 0 -0.85733,-2.08245l-34.48083,-17.50308a1.56731,1.69562 0 0 0 -2.19501,0.53303l-41.0706,50.12266l-1.89252,-0.96068a1.56731,1.69562 0 0 0 -2.43452,0.90002l-3.46883,6.78247a1.56731,1.69562 0 0 0 0.70011,2.49121l26.64428,13.52511l-5.76584,11.27373l-19.83296,9.90509l-5.32102,-2.70104a1.56731,1.69562 0 0 0 -2.14051,0.46992l-5.23205,5.88742a1.56731,1.69562 0 0 0 0.4061,2.92131l50.15394,25.45904a1.56731,1.69562 0 0 0 2.5978,-1.33508l1.90151,-7.57806a1.56731,1.69562 0 0 0 -0.86339,-2.05615l-5.51693,-2.80049l-3.61401,-21.80719l5.76584,-11.27373l17.24041,8.75154l-3.46883,6.78247a1.65567,1.79121 0 0 0 -0.12174,0.29595a4.70193,5.08685 0 1 0 3.0876,1.56732a1.65567,1.79121 0 0 0 0.16877,-0.27208l3.46883,-6.78247l6.26924,3.18238a1.56731,1.69562 0 0 0 2.43452,-0.90002l3.46883,-6.78247a1.56731,1.69562 0 0 0 -0.70011,-2.49121zm-21.16124,-79.08826l31.99664,16.24207l-15.94876,60.25056l-55.60035,-28.22373l39.55246,-48.2689zm-10.28005,114.38793l-0.95075,3.78903l-46.07698,-23.3895l2.61602,-2.94371l44.41171,22.54418zm-6.57233,-7.60789l-27.9569,-14.19142l17.76384,-8.8703a1.5728,1.70156 0 0 0 0.88485,-0.88573l6.07045,-11.86932l6.26924,3.18238l-6.07045,11.86932a1.5728,1.70156 0 0 0 -0.19915,1.2338l3.23813,19.53128zm20.47069,-8.83115a1.56731,1.69562 0 1 1 -0.70011,-2.49121a1.56946,1.69795 0 0 1 0.70011,2.49121zm12.50679,-12.87377l-62.69242,-31.82379l1.73441,-3.39123l62.69242,31.82379l-1.73441,3.39123z" fill="#004fac" id="svg_14"/>
   </g>
  </g>
  <g transform="rotate(-42.3607 420.754 247.039)" id="svg_8" stroke="null">
   <path id="svg_9" d="m466.65402,222.54821a45.90039,46.52803 0 1 0 -69.77402,39.74351a9.58593,9.71701 0 0 1 4.54716,8.30923l0,13.16835l38.65296,0l0,-13.16958a9.69344,9.82599 0 0 1 4.6456,-8.36923a45.86808,46.49528 0 0 0 21.92831,-39.68229l-0.00001,0.00001z" fill="#ffe76c" stroke="null"/>
   <path id="svg_10" d="m456.99078,227.4459a2.41581,2.44884 0 0 1 -2.41581,-2.44884l0,-2.44884a33.85969,34.32269 0 0 0 -33.82134,-34.28381l-2.41581,0a2.41581,2.44884 0 0 1 0,-4.89769l2.41581,0a38.69674,39.22588 0 0 1 38.65296,39.1815l0,2.44884a2.41581,2.44884 0 0 1 -2.41581,2.44884z" fill="#ffb632" stroke="null"/>
   <path id="svg_11" d="m430.41687,239.69012a7.25558,7.3548 0 0 0 -7.24743,7.34653l0,2.44884l-4.83162,0l0,-2.44884a7.24743,7.34653 0 1 0 -7.24743,7.34653l2.41581,0l0,22.03959a2.41581,2.44884 0 0 0 2.41581,2.44884l9.66324,0a2.41581,2.44884 0 0 0 2.41581,-2.44884l0,-22.03959l2.41581,0a7.24743,7.34653 0 0 0 0,-14.69306zm-21.74229,7.34653a2.41581,2.44884 0 0 1 4.83162,0l0,2.44884l-2.41581,0a2.41853,2.4516 0 0 1 -2.41581,-2.44884zm14.49486,26.93728l-4.83162,0l0,-19.59075l4.83162,0l0,19.59075zm7.24743,-24.48844l-2.41581,0l0,-2.44884a2.41581,2.44884 0 1 1 2.41581,2.44884z" fill="#ffb632" stroke="null"/>
   <path id="svg_12" d="m440.08011,293.56468l-38.65296,0a4.83162,4.89769 0 0 1 -4.83162,-4.89769a4.83162,4.89769 0 0 1 4.83162,-4.89769l38.65296,0a4.83162,4.89769 0 0 1 4.83162,4.89769a4.83162,4.89769 0 0 1 -4.83162,4.89769z" fill="#dadcde" stroke="null"/>
   <path id="svg_13" d="m440.08011,303.36006l-38.65296,0a4.83162,4.89769 0 0 1 -4.83162,-4.89769a4.83162,4.89769 0 0 1 4.83162,-4.89769l38.65296,0a4.83162,4.89769 0 0 1 4.83162,4.89769a4.83162,4.89769 0 0 1 -4.83162,4.89769z" fill="#e9eef2" stroke="null"/>
   <path id="svg_15" d="m401.42715,303.36006l38.65296,0a0,0 0 0 1 0,0l0,4.89769a9.66324,9.79537 0 0 1 -9.66324,9.79537l-19.32648,0a9.66324,9.79537 0 0 1 -9.66324,-9.79537l0,-4.89769a0,0 0 0 1 0,0z" fill="#dadcde" stroke="null"/>
   <path id="svg_16" d="m440.08011,283.76931l-38.65296,0a4.83162,4.89769 0 0 1 -4.83162,-4.89769a4.83162,4.89769 0 0 1 4.83162,-4.89769l38.65296,0a4.83162,4.89769 0 0 1 4.83162,4.89769a4.83162,4.89769 0 0 1 -4.83162,4.89769z" fill="#e9eef2" stroke="null"/>
  </g>
  <g transform="rotate(48.3279 777.186 190.097)" stroke="null" id="svg_31">
   <path d="m823.08341,165.60595a45.90039,46.52803 0 1 0 -69.77402,39.7435a9.58593,9.71701 0 0 1 4.54715,8.30924l0,13.16835l38.65296,0l0,-13.16958a9.69344,9.82599 0 0 1 4.6456,-8.36923a45.86808,46.49528 0 0 0 21.92831,-39.68228z" fill="#ffe76c" stroke="null" id="svg_24"/>
   <path d="m813.42017,170.50363a2.41581,2.44884 0 0 1 -2.41581,-2.44884l0,-2.44884a33.85969,34.32269 0 0 0 -33.82134,-34.28382l-2.41581,0a2.41581,2.44884 0 0 1 0,-4.89768l2.41581,0a38.69674,39.22588 0 0 1 38.65296,39.1815l0,2.44884a2.41581,2.44884 0 0 1 -2.41581,2.44884z" fill="#ffb632" stroke="null" id="svg_25"/>
   <path d="m786.84626,182.74785a7.25558,7.3548 0 0 0 -7.24743,7.34653l0,2.44885l-4.83162,0l0,-2.44885a7.24743,7.34653 0 1 0 -7.24743,7.34653l2.41581,0l0,22.0396a2.41581,2.44884 0 0 0 2.41581,2.44884l9.66324,0a2.41581,2.44884 0 0 0 2.41581,-2.44884l0,-22.0396l2.41581,0a7.24743,7.34653 0 0 0 0,-14.69306zm-21.74229,7.34653a2.41581,2.44884 0 0 1 4.83162,0l0,2.44885l-2.41581,0a2.41853,2.4516 0 0 1 -2.41581,-2.44885zm14.49486,26.93728l-4.83162,0l0,-19.59075l4.83162,0l0,19.59075zm7.24743,-24.48843l-2.41581,0l0,-2.44885a2.41581,2.44884 0 1 1 2.41581,2.44885z" fill="#ffb632" stroke="null" id="svg_26"/>
   <path d="m796.5095,236.62241l-38.65296,0a4.83162,4.89769 0 0 1 -4.83162,-4.89768a4.83162,4.89769 0 0 1 4.83162,-4.89769l38.65296,0a4.83162,4.89769 0 0 1 4.83162,4.89769a4.83162,4.89769 0 0 1 -4.83162,4.89768z" fill="#dadcde" stroke="null" id="svg_27"/>
   <path d="m796.5095,246.41779l-38.65296,0a4.83162,4.89769 0 0 1 -4.83162,-4.89769a4.83162,4.89769 0 0 1 4.83162,-4.89769l38.65296,0a4.83162,4.89769 0 0 1 4.83162,4.89769a4.83162,4.89769 0 0 1 -4.83162,4.89769z" fill="#e9eef2" stroke="null" id="svg_28"/>
   <path d="m757.85654,246.41779l38.65296,0a0,0 0 0 1 0,0l0,4.89769a9.66324,9.79537 0 0 1 -9.66324,9.79537l-19.32648,0a9.66324,9.79537 0 0 1 -9.66324,-9.79537l0,-4.89769a0,0 0 0 1 0,0z" fill="#dadcde" stroke="null" id="svg_29"/>
   <path d="m796.5095,226.82704l-38.65296,0a4.83162,4.89769 0 0 1 -4.83162,-4.89769a4.83162,4.89769 0 0 1 4.83162,-4.89769l38.65296,0a4.83162,4.89769 0 0 1 4.83162,4.89769a4.83162,4.89769 0 0 1 -4.83162,4.89769z" fill="#e9eef2" stroke="null" id="svg_30"/>
  </g>
  <g transform="rotate(-0.48909 506.457 136.848)" stroke="null">
   <path stroke="null" fill="#7D8F9F" d="m512.67405,188.72587c-1.35889,-0.00032 -2.46033,-1.16175 -2.46003,-2.59456c0,-0.68771 0.25929,-1.34689 0.72035,-1.83325l47.47317,-50.04432l-40.09124,-42.26259c-0.94396,-1.03043 -0.9172,-2.6727 0.06029,-3.66779c0.9535,-0.97077 2.46526,-0.97077 3.41906,0l43.57059,45.93038l-50.95252,53.71211c-0.46137,0.48636 -1.08699,0.76002 -1.73967,0.76002z"/>
   <g stroke="null">
    <circle stroke="null" fill="#31B1AE" r="7.25122" cy="134.25374" cx="559.42625"/>
    <path stroke="null" fill="#31B1AE" d="m510.21341,100.5329l13.12753,-13.83851c2.62243,-2.76446 4.08989,-6.51785 4.07728,-10.42752l0,-0.01816c-0.02707,-8.08522 -6.25249,-14.62447 -13.92231,-14.62447c-3.69835,0.00032 -7.24475,1.55148 -9.85733,4.31108l-13.1103,13.8463l19.68514,20.75129z"/>
    <path stroke="null" fill="#31B1AE" d="m500.64397,131.37191l-39.37027,-41.50257l4.15602,-4.38112c5.22056,-5.50395 12.30167,-8.59622 19.68514,-8.59622c15.37194,0.00584 27.83109,13.14302 27.83232,29.34751c0,7.78335 -2.93339,15.24798 -8.15457,20.75129l-4.14864,4.38112z"/>
   </g>
   <ellipse stroke="null" fill="#FFD884" ry="54.152" rx="90.512" cy="-407.49395" cx="389.03517" transform="matrix(-0.21749 -0.229269 0.21749 -0.229269 654.722 105.837)"/>
   <g stroke="null">
    <path stroke="null" fill="#FFF89B" d="m453.61864,139.44156c-1.35889,-0.00032 -2.46033,-1.16175 -2.46003,-2.59456c0,-0.68771 0.25929,-1.34689 0.72035,-1.83325l4.92128,-5.18782c0.97749,-0.99509 2.53538,-0.96656 3.47935,0.06388c0.9209,1.00514 0.9209,2.59877 0,3.60391l-4.92128,5.18782c-0.46137,0.48636 -1.08699,0.76002 -1.73967,0.76002z"/>
    <path stroke="null" fill="#FFF89B" d="m470.84314,144.62939c-1.35889,0 -2.46064,-1.16142 -2.46064,-2.59391l0,-5.18782c0,-1.43249 1.10175,-2.59391 2.46064,-2.59391c1.35889,0 2.46064,1.16142 2.46064,2.59391l0,5.18782c0,1.43249 -1.10175,2.59391 -2.46064,2.59391z"/>
    <path stroke="null" fill="#FFF89B" d="m453.61864,121.28419l-4.92128,0c-1.35889,0 -2.46064,-1.16142 -2.46064,-2.59391s1.10175,-2.59391 2.46064,-2.59391l4.92128,0c1.35889,0 2.46064,1.16142 2.46064,2.59391s-1.10175,2.59391 -2.46064,2.59391z"/>
    <circle stroke="null" fill="#FFF89B" r="9.6683" cy="116.09637" cx="473.30378"/>
   </g>
   <circle stroke="null" fill="#FFD884" r="7.25122" cy="191.31978" cx="490.52827"/>
   <path stroke="null" fill="#31B1AE" d="m483.14635,212.07107c0,-15.75833 12.11835,-28.53302 27.06706,-28.53302s27.06706,12.77469 27.06706,28.53302l-54.13413,0z"/>
   <path stroke="null" fill="#88D0EF" d="m523.00875,204.28934c-0.87906,0 -1.69138,-0.49446 -2.13092,-1.29696c-2.2072,-4.00759 -6.26849,-6.47732 -10.66442,-6.48478c-1.35889,0 -2.46064,-1.16142 -2.46064,-2.59391s1.10175,-2.59391 2.46064,-2.59391c6.15068,0.01362 11.83169,3.47065 14.91887,9.07869c0.67944,1.24054 0.27621,2.82704 -0.9006,3.54328c-0.37186,0.22632 -0.79356,0.34629 -1.22294,0.34758z"/>
   <g stroke="null"/>
   <g stroke="null"/>
   <g stroke="null"/>
   <g stroke="null"/>
   <g stroke="null"/>
   <g stroke="null"/>
   <g stroke="null"/>
   <g stroke="null"/>
   <g stroke="null"/>
   <g stroke="null"/>
   <g stroke="null"/>
   <g stroke="null"/>
   <g stroke="null"/>
   <g stroke="null"/>
   <g stroke="null"/>
  </g>
  <g transform="rotate(48.4875 624.745 225.218)" stroke="null">
   <g stroke="null">
    <path stroke="null" fill="#FFD884" d="m614.15068,197.10215c-0.98096,0 -1.77629,-0.74052 -1.77629,-1.65388l0,-18.19268c0,-0.91336 0.79533,-1.65388 1.77629,-1.65388s1.77629,0.74052 1.77629,1.65388l0,18.19268c0,0.91336 -0.79533,1.65388 -1.77629,1.65388z"/>
    <path stroke="null" fill="#FFD884" d="m635.46614,197.10215c-0.98096,0 -1.77629,-0.74052 -1.77629,-1.65388l0,-18.19268c0,-0.91336 0.79533,-1.65388 1.77629,-1.65388s1.77629,0.74052 1.77629,1.65388l0,18.19268c0,0.91336 -0.79533,1.65388 -1.77629,1.65388z"/>
   </g>
   <path stroke="null" fill="#7D8F9F" d="m642.44518,274.83451l-37.17594,0c-4.905,0 -8.88144,-3.70242 -8.88144,-8.2694s3.97644,-8.2694 8.88144,-8.2694l14.21031,0c0.98096,0 1.77629,0.74052 1.77629,1.65388s-0.79533,1.65388 -1.77629,1.65388l-14.21031,0c-1.41237,0.00393 -2.76613,0.52635 -3.76751,1.45376c-2.08026,1.93752 -2.08026,5.07824 0,7.01576c1.00138,0.92741 2.35514,1.44983 3.76751,1.45376l37.17594,0c3.92404,0 7.10515,-2.96189 7.10515,-6.61552s-3.18111,-6.61552 -7.10515,-6.61552l-8.54039,0c-6.0043,-0.00083 -10.87177,-4.53287 -10.87266,-10.1234l0,-13.03092c0.00133,-0.91336 0.79778,-1.65285 1.77873,-1.65161c0.97918,0.00124 1.77251,0.7399 1.77385,1.65161l0,13.03092c0,3.76423 3.27725,6.81564 7.32008,6.81564l8.54039,0c5.88618,0 10.65773,4.44274 10.65773,9.92328s-4.77155,9.92328 -10.65773,9.92328l0,0z"/>
   <path stroke="null" fill="#D1E3EE" d="m638.45386,230.54195c-7.90471,6.133 -19.38619,6.133 -27.29089,0c-4.86015,-3.77085 -7.67001,-9.35683 -7.67001,-15.24712l0,-19.84656l42.63092,0l0,19.84656c0,5.89029 -2.80987,11.47627 -7.67001,15.24712z"/>
   <g stroke="null">
    <path stroke="null" fill="#A9BFD1" d="m627.47284,213.64095l-5.32887,0l-2.66443,4.1347l2.66443,4.1347l5.32887,0l2.66443,-4.1347l-2.66443,-4.1347z"/>
    <path stroke="null" fill="#A9BFD1" d="m610.59811,200.40991c-0.98096,0 -1.77629,0.74052 -1.77629,1.65388s0.79533,1.65388 1.77629,1.65388l35.52577,0l0,-3.30776l-35.52577,0z"/>
   </g>
   <g stroke="null"/>
   <g stroke="null"/>
   <g stroke="null"/>
   <g stroke="null"/>
   <g stroke="null"/>
   <g stroke="null"/>
   <g stroke="null"/>
   <g stroke="null"/>
   <g stroke="null"/>
   <g stroke="null"/>
   <g stroke="null"/>
   <g stroke="null"/>
   <g stroke="null"/>
   <g stroke="null"/>
   <g stroke="null"/>
  </g>
 </g>

</svg>