<svg width="1919.9999999999998" height="503" xmlns="http://www.w3.org/2000/svg">
 <g id="Layer_1">
  <title>Layer 1</title>
  <g opacity="0.63" id="svg_1" stroke="null">
   <g id="svg_2" stroke="null">
    <g fill="#57a4ff" id="svg_3" transform="matrix(0.782229 0.397073 -0.398565 0.7793 89.1222 -59.2529)" stroke="null">
     <path d="m192.19757,160.91601l84.1532,0l0,8.70328l-84.1532,0l0,-8.70328z" id="svg_4" stroke="null"/>
     <path d="m266.33253,217.48732l-64.11672,0l2.2541,-8.70328l59.85897,0l2.00365,8.70328z" id="svg_5" stroke="null"/>
     <circle r="4.00729" cy="187.02585" cx="266.33253" id="svg_6" stroke="null"/>
    </g>
    <path fill="#004fac" d="m313.34639,247.02536l-1.78136,1.1525l-46.10454,-45.57111a1.47525,1.59602 0 0 0 -2.2389,-0.30153l-32.4555,20.99794a1.47525,1.59602 0 0 0 -0.63414,2.16033l23.03532,60.49635l-1.78136,1.1525a1.47525,1.59602 0 0 0 -0.43489,2.55047l4.16145,6.38408a1.47525,1.59602 0 0 0 2.51561,0.64157l25.07925,-16.22568l6.91711,10.61153l-1.30618,22.06407l-5.00847,3.24036a1.47525,1.59602 0 0 0 -0.66176,2.08176l2.5018,7.45784a1.47525,1.59602 0 0 0 2.74249,1.11028l47.208,-30.54246a1.47525,1.59602 0 0 0 0.13834,-2.90888l-5.6367,-5.42963a1.47525,1.59602 0 0 0 -2.21907,-0.28316l-5.19288,3.35967l-20.76355,-7.78548l-6.91711,-10.61153l16.22775,-10.49897l4.16145,6.38408a1.55841,1.68599 0 0 0 0.19639,0.25302a4.42575,4.78806 0 1 0 2.90625,-1.88027a1.55841,1.68599 0 0 0 -0.15214,-0.28165l-4.16145,-6.38408l5.901,-3.81781a1.47525,1.59602 0 0 0 0.43489,-2.55047l-4.16145,-6.38408a1.47525,1.59602 0 0 0 -2.51561,-0.64157l-0.00001,0l-0.00003,0.00001zm-79.33045,-21.28657l30.11723,-19.48513l44.40022,43.8856l-52.33449,33.85918l-22.18295,-58.25965l-0.00001,0zm94.29511,66.06342l2.81835,2.71482l-43.3705,28.05969l-1.2509,-3.72892l41.80305,-27.04558l0,-0.00001zm-9.89955,1.86655l-26.31477,17.02503l1.17114,-19.76149a1.48041,1.60161 0 0 0 -0.32752,-1.2063l-7.28254,-11.17214l5.901,-3.81781l7.28254,11.17214a1.48041,1.60161 0 0 0 0.97294,0.78873l18.59721,6.97184l-0.00001,0l0.00001,0zm2.55861,-22.07734a1.47525,1.59602 0 1 1 -2.51561,-0.64157a1.47728,1.59821 0 0 1 2.51561,0.64157zm-4.93751,-17.22753l-59.00999,38.17807l-2.08072,-3.19204l59.00999,-38.17807l2.08072,3.19204z" id="svg_7" stroke="null"/>
    <path id="svg_14" fill="#004fac" d="m242.02329,174.18587l-1.89253,-0.96068l16.56178,-62.56378a1.56731,1.69562 0 0 0 -0.85733,-2.08245l-34.48083,-17.50308a1.56731,1.69562 0 0 0 -2.19501,0.53303l-41.0706,50.12266l-1.89252,-0.96068a1.56731,1.69562 0 0 0 -2.43452,0.90002l-3.46883,6.78247a1.56731,1.69562 0 0 0 0.70011,2.49121l26.64428,13.52511l-5.76584,11.27373l-19.83296,9.90509l-5.32102,-2.70104a1.56731,1.69562 0 0 0 -2.14051,0.46992l-5.23205,5.88742a1.56731,1.69562 0 0 0 0.4061,2.92131l50.15394,25.45904a1.56731,1.69562 0 0 0 2.5978,-1.33508l1.90151,-7.57806a1.56731,1.69562 0 0 0 -0.86339,-2.05615l-5.51693,-2.80049l-3.61401,-21.80719l5.76584,-11.27373l17.24041,8.75154l-3.46883,6.78247a1.65567,1.79121 0 0 0 -0.12174,0.29595a4.70193,5.08685 0 1 0 3.0876,1.56732a1.65567,1.79121 0 0 0 0.16877,-0.27208l3.46883,-6.78247l6.26924,3.18238a1.56731,1.69562 0 0 0 2.43452,-0.90002l3.46883,-6.78247a1.56731,1.69562 0 0 0 -0.70011,-2.49121l0,-0.00001zm-21.16124,-79.08826l31.99664,16.24207l-15.94876,60.25056l-55.60035,-28.22373l39.55246,-48.2689l0.00001,0zm-10.28005,114.38793l-0.95075,3.78903l-46.07698,-23.3895l2.61602,-2.94371l44.41171,22.54418zm-6.57233,-7.60789l-27.9569,-14.19142l17.76384,-8.8703a1.5728,1.70156 0 0 0 0.88485,-0.88573l6.07045,-11.86932l6.26924,3.18238l-6.07045,11.86932a1.5728,1.70156 0 0 0 -0.19915,1.2338l3.23813,19.53128l-0.00001,-0.00001zm20.47069,-8.83115a1.56731,1.69562 0 1 1 -0.70011,-2.49121a1.56946,1.69795 0 0 1 0.70011,2.49121zm12.50679,-12.87377l-62.69242,-31.82379l1.73441,-3.39123l62.69242,31.82379l-1.73441,3.39123z" stroke="null"/>
   </g>
  </g>
  <g stroke="null" id="svg_8" transform="rotate(-42.3607 420.754 247.039)">
   <path stroke="null" fill="#ffe76c" d="m466.65402,222.54821a45.90039,46.52803 0 1 0 -69.77402,39.74351a9.58593,9.71701 0 0 1 4.54716,8.30923l0,13.16835l38.65296,0l0,-13.16958a9.69344,9.82599 0 0 1 4.6456,-8.36923a45.86808,46.49528 0 0 0 21.92831,-39.68229l-0.00001,0.00001z" id="svg_9"/>
   <path stroke="null" fill="#ffb632" d="m456.99078,227.4459a2.41581,2.44884 0 0 1 -2.41581,-2.44884l0,-2.44884a33.85969,34.32269 0 0 0 -33.82134,-34.28381l-2.41581,0a2.41581,2.44884 0 0 1 0,-4.89769l2.41581,0a38.69674,39.22588 0 0 1 38.65296,39.1815l0,2.44884a2.41581,2.44884 0 0 1 -2.41581,2.44884z" id="svg_10"/>
   <path stroke="null" fill="#ffb632" d="m430.41687,239.69012a7.25558,7.3548 0 0 0 -7.24743,7.34653l0,2.44884l-4.83162,0l0,-2.44884a7.24743,7.34653 0 1 0 -7.24743,7.34653l2.41581,0l0,22.03959a2.41581,2.44884 0 0 0 2.41581,2.44884l9.66324,0a2.41581,2.44884 0 0 0 2.41581,-2.44884l0,-22.03959l2.41581,0a7.24743,7.34653 0 0 0 0,-14.69306zm-21.74229,7.34653a2.41581,2.44884 0 0 1 4.83162,0l0,2.44884l-2.41581,0a2.41853,2.4516 0 0 1 -2.41581,-2.44884zm14.49486,26.93728l-4.83162,0l0,-19.59075l4.83162,0l0,19.59075zm7.24743,-24.48844l-2.41581,0l0,-2.44884a2.41581,2.44884 0 1 1 2.41581,2.44884z" id="svg_11"/>
   <path stroke="null" fill="#dadcde" d="m440.08011,293.56468l-38.65296,0a4.83162,4.89769 0 0 1 -4.83162,-4.89769a4.83162,4.89769 0 0 1 4.83162,-4.89769l38.65296,0a4.83162,4.89769 0 0 1 4.83162,4.89769a4.83162,4.89769 0 0 1 -4.83162,4.89769z" id="svg_12"/>
   <path stroke="null" fill="#e9eef2" d="m440.08011,303.36006l-38.65296,0a4.83162,4.89769 0 0 1 -4.83162,-4.89769a4.83162,4.89769 0 0 1 4.83162,-4.89769l38.65296,0a4.83162,4.89769 0 0 1 4.83162,4.89769a4.83162,4.89769 0 0 1 -4.83162,4.89769z" id="svg_13"/>
   <path stroke="null" fill="#dadcde" d="m401.42715,303.36006l38.65296,0a0,0 0 0 1 0,0l0,4.89769a9.66324,9.79537 0 0 1 -9.66324,9.79537l-19.32648,0a9.66324,9.79537 0 0 1 -9.66324,-9.79537l0,-4.89769a0,0 0 0 1 0,0z" id="svg_15"/>
   <path stroke="null" fill="#e9eef2" d="m440.08011,283.76931l-38.65296,0a4.83162,4.89769 0 0 1 -4.83162,-4.89769a4.83162,4.89769 0 0 1 4.83162,-4.89769l38.65296,0a4.83162,4.89769 0 0 1 4.83162,4.89769a4.83162,4.89769 0 0 1 -4.83162,4.89769z" id="svg_16"/>
  </g>
  <g id="svg_31" stroke="null" transform="rotate(48.3279 777.186 190.097)">
   <path id="svg_24" stroke="null" fill="#ffe76c" d="m823.08341,165.60595a45.90039,46.52803 0 1 0 -69.77402,39.7435a9.58593,9.71701 0 0 1 4.54715,8.30924l0,13.16835l38.65296,0l0,-13.16958a9.69344,9.82599 0 0 1 4.6456,-8.36923a45.86808,46.49528 0 0 0 21.92831,-39.68228z"/>
   <path id="svg_25" stroke="null" fill="#ffb632" d="m813.42017,170.50363a2.41581,2.44884 0 0 1 -2.41581,-2.44884l0,-2.44884a33.85969,34.32269 0 0 0 -33.82134,-34.28382l-2.41581,0a2.41581,2.44884 0 0 1 0,-4.89768l2.41581,0a38.69674,39.22588 0 0 1 38.65296,39.1815l0,2.44884a2.41581,2.44884 0 0 1 -2.41581,2.44884z"/>
   <path id="svg_26" stroke="null" fill="#ffb632" d="m786.84626,182.74785a7.25558,7.3548 0 0 0 -7.24743,7.34653l0,2.44885l-4.83162,0l0,-2.44885a7.24743,7.34653 0 1 0 -7.24743,7.34653l2.41581,0l0,22.0396a2.41581,2.44884 0 0 0 2.41581,2.44884l9.66324,0a2.41581,2.44884 0 0 0 2.41581,-2.44884l0,-22.0396l2.41581,0a7.24743,7.34653 0 0 0 0,-14.69306zm-21.74229,7.34653a2.41581,2.44884 0 0 1 4.83162,0l0,2.44885l-2.41581,0a2.41853,2.4516 0 0 1 -2.41581,-2.44885zm14.49486,26.93728l-4.83162,0l0,-19.59075l4.83162,0l0,19.59075zm7.24743,-24.48843l-2.41581,0l0,-2.44885a2.41581,2.44884 0 1 1 2.41581,2.44885z"/>
   <path id="svg_27" stroke="null" fill="#dadcde" d="m796.5095,236.62241l-38.65296,0a4.83162,4.89769 0 0 1 -4.83162,-4.89768a4.83162,4.89769 0 0 1 4.83162,-4.89769l38.65296,0a4.83162,4.89769 0 0 1 4.83162,4.89769a4.83162,4.89769 0 0 1 -4.83162,4.89768z"/>
   <path id="svg_28" stroke="null" fill="#e9eef2" d="m796.5095,246.41779l-38.65296,0a4.83162,4.89769 0 0 1 -4.83162,-4.89769a4.83162,4.89769 0 0 1 4.83162,-4.89769l38.65296,0a4.83162,4.89769 0 0 1 4.83162,4.89769a4.83162,4.89769 0 0 1 -4.83162,4.89769z"/>
   <path id="svg_29" stroke="null" fill="#dadcde" d="m757.85654,246.41779l38.65296,0a0,0 0 0 1 0,0l0,4.89769a9.66324,9.79537 0 0 1 -9.66324,9.79537l-19.32648,0a9.66324,9.79537 0 0 1 -9.66324,-9.79537l0,-4.89769a0,0 0 0 1 0,0z"/>
   <path id="svg_30" stroke="null" fill="#e9eef2" d="m796.5095,226.82704l-38.65296,0a4.83162,4.89769 0 0 1 -4.83162,-4.89769a4.83162,4.89769 0 0 1 4.83162,-4.89769l38.65296,0a4.83162,4.89769 0 0 1 4.83162,4.89769a4.83162,4.89769 0 0 1 -4.83162,4.89769z"/>
  </g>
  <g id="svg_17" stroke="null" transform="rotate(-0.48909 506.457 136.848)">
   <path id="svg_18" d="m512.67405,188.72587c-1.35889,-0.00032 -2.46033,-1.16175 -2.46003,-2.59456c0,-0.68771 0.25929,-1.34689 0.72035,-1.83325l47.47317,-50.04432l-40.09124,-42.26259c-0.94396,-1.03043 -0.9172,-2.6727 0.06029,-3.66779c0.9535,-0.97077 2.46526,-0.97077 3.41906,0l43.57059,45.93038l-50.95252,53.71211c-0.46137,0.48636 -1.08699,0.76002 -1.73967,0.76002z" fill="#7D8F9F" stroke="null"/>
   <g id="svg_19" stroke="null">
    <circle id="svg_20" cx="559.42625" cy="134.25374" r="7.25122" fill="#31B1AE" stroke="null"/>
    <path id="svg_21" d="m510.21341,100.5329l13.12753,-13.83851c2.62243,-2.76446 4.08989,-6.51785 4.07728,-10.42752l0,-0.01816c-0.02707,-8.08522 -6.25249,-14.62447 -13.92231,-14.62447c-3.69835,0.00032 -7.24475,1.55148 -9.85733,4.31108l-13.1103,13.8463l19.68514,20.75129l-0.00001,-0.00001z" fill="#31B1AE" stroke="null"/>
    <path id="svg_22" d="m500.64397,131.37191l-39.37027,-41.50257l4.15602,-4.38112c5.22056,-5.50395 12.30167,-8.59622 19.68514,-8.59622c15.37194,0.00584 27.83109,13.14302 27.83232,29.34751c0,7.78335 -2.93339,15.24798 -8.15457,20.75129l-4.14864,4.38112l0,-0.00001z" fill="#31B1AE" stroke="null"/>
   </g>
   <ellipse id="svg_23" transform="matrix(-0.21749 -0.229269 0.21749 -0.229269 654.722 105.837)" cx="389.03517" cy="-407.49395" rx="90.512" ry="54.152" fill="#FFD884" stroke="null"/>
   <g id="svg_32" stroke="null">
    <path id="svg_33" d="m453.61864,139.44156c-1.35889,-0.00032 -2.46033,-1.16175 -2.46003,-2.59456c0,-0.68771 0.25929,-1.34689 0.72035,-1.83325l4.92128,-5.18782c0.97749,-0.99509 2.53538,-0.96656 3.47935,0.06388c0.9209,1.00514 0.9209,2.59877 0,3.60391l-4.92128,5.18782c-0.46137,0.48636 -1.08699,0.76002 -1.73967,0.76002z" fill="#FFF89B" stroke="null"/>
    <path id="svg_34" d="m470.84314,144.62939c-1.35889,0 -2.46064,-1.16142 -2.46064,-2.59391l0,-5.18782c0,-1.43249 1.10175,-2.59391 2.46064,-2.59391c1.35889,0 2.46064,1.16142 2.46064,2.59391l0,5.18782c0,1.43249 -1.10175,2.59391 -2.46064,2.59391z" fill="#FFF89B" stroke="null"/>
    <path id="svg_35" d="m453.61864,121.28419l-4.92128,0c-1.35889,0 -2.46064,-1.16142 -2.46064,-2.59391s1.10175,-2.59391 2.46064,-2.59391l4.92128,0c1.35889,0 2.46064,1.16142 2.46064,2.59391s-1.10175,2.59391 -2.46064,2.59391z" fill="#FFF89B" stroke="null"/>
    <circle id="svg_36" cx="473.30378" cy="116.09637" r="9.6683" fill="#FFF89B" stroke="null"/>
   </g>
   <circle id="svg_37" cx="490.52827" cy="191.31978" r="7.25122" fill="#FFD884" stroke="null"/>
   <path id="svg_38" d="m483.14635,212.07107c0,-15.75833 12.11835,-28.53302 27.06706,-28.53302s27.06706,12.77469 27.06706,28.53302l-54.13413,0l0.00001,0z" fill="#31B1AE" stroke="null"/>
   <path id="svg_39" d="m523.00875,204.28934c-0.87906,0 -1.69138,-0.49446 -2.13092,-1.29696c-2.2072,-4.00759 -6.26849,-6.47732 -10.66442,-6.48478c-1.35889,0 -2.46064,-1.16142 -2.46064,-2.59391s1.10175,-2.59391 2.46064,-2.59391c6.15068,0.01362 11.83169,3.47065 14.91887,9.07869c0.67944,1.24054 0.27621,2.82704 -0.9006,3.54328c-0.37186,0.22632 -0.79356,0.34629 -1.22294,0.34758l0.00001,0.00001z" fill="#88D0EF" stroke="null"/>
   <g id="svg_40" stroke="null"/>
   <g id="svg_41" stroke="null"/>
   <g id="svg_42" stroke="null"/>
   <g id="svg_43" stroke="null"/>
   <g id="svg_44" stroke="null"/>
   <g id="svg_45" stroke="null"/>
   <g id="svg_46" stroke="null"/>
   <g id="svg_47" stroke="null"/>
   <g id="svg_48" stroke="null"/>
   <g id="svg_49" stroke="null"/>
   <g id="svg_50" stroke="null"/>
   <g id="svg_51" stroke="null"/>
   <g id="svg_52" stroke="null"/>
   <g id="svg_53" stroke="null"/>
   <g id="svg_54" stroke="null"/>
  </g>
  <g id="svg_55" stroke="null" transform="rotate(48.4875 624.745 225.218)">
   <g id="svg_56" stroke="null">
    <path id="svg_57" d="m614.15068,197.10215c-0.98096,0 -1.77629,-0.74052 -1.77629,-1.65388l0,-18.19268c0,-0.91336 0.79533,-1.65388 1.77629,-1.65388s1.77629,0.74052 1.77629,1.65388l0,18.19268c0,0.91336 -0.79533,1.65388 -1.77629,1.65388z" fill="#FFD884" stroke="null"/>
    <path id="svg_58" d="m635.46614,197.10215c-0.98096,0 -1.77629,-0.74052 -1.77629,-1.65388l0,-18.19268c0,-0.91336 0.79533,-1.65388 1.77629,-1.65388s1.77629,0.74052 1.77629,1.65388l0,18.19268c0,0.91336 -0.79533,1.65388 -1.77629,1.65388z" fill="#FFD884" stroke="null"/>
   </g>
   <path id="svg_59" d="m642.44518,274.83451l-37.17594,0c-4.905,0 -8.88144,-3.70242 -8.88144,-8.2694s3.97644,-8.2694 8.88144,-8.2694l14.21031,0c0.98096,0 1.77629,0.74052 1.77629,1.65388s-0.79533,1.65388 -1.77629,1.65388l-14.21031,0c-1.41237,0.00393 -2.76613,0.52635 -3.76751,1.45376c-2.08026,1.93752 -2.08026,5.07824 0,7.01576c1.00138,0.92741 2.35514,1.44983 3.76751,1.45376l37.17594,0c3.92404,0 7.10515,-2.96189 7.10515,-6.61552s-3.18111,-6.61552 -7.10515,-6.61552l-8.54039,0c-6.0043,-0.00083 -10.87177,-4.53287 -10.87266,-10.1234l0,-13.03092c0.00133,-0.91336 0.79778,-1.65285 1.77873,-1.65161c0.97918,0.00124 1.77251,0.7399 1.77385,1.65161l0,13.03092c0,3.76423 3.27725,6.81564 7.32008,6.81564l8.54039,0c5.88618,0 10.65773,4.44274 10.65773,9.92328s-4.77155,9.92328 -10.65773,9.92328l0,0z" fill="#7D8F9F" stroke="null"/>
   <path id="svg_60" d="m638.45386,230.54195c-7.90471,6.133 -19.38619,6.133 -27.29089,0c-4.86015,-3.77085 -7.67001,-9.35683 -7.67001,-15.24712l0,-19.84656l42.63092,0l0,19.84656c0,5.89029 -2.80987,11.47627 -7.67001,15.24712l-0.00001,0z" fill="#D1E3EE" stroke="null"/>
   <g id="svg_61" stroke="null">
    <path id="svg_62" d="m627.47284,213.64095l-5.32887,0l-2.66443,4.1347l2.66443,4.1347l5.32887,0l2.66443,-4.1347l-2.66443,-4.1347z" fill="#A9BFD1" stroke="null"/>
    <path id="svg_63" d="m610.59811,200.40991c-0.98096,0 -1.77629,0.74052 -1.77629,1.65388s0.79533,1.65388 1.77629,1.65388l35.52577,0l0,-3.30776l-35.52577,0z" fill="#A9BFD1" stroke="null"/>
   </g>
   <g id="svg_64" stroke="null"/>
   <g id="svg_65" stroke="null"/>
   <g id="svg_66" stroke="null"/>
   <g id="svg_67" stroke="null"/>
   <g id="svg_68" stroke="null"/>
   <g id="svg_69" stroke="null"/>
   <g id="svg_70" stroke="null"/>
   <g id="svg_71" stroke="null"/>
   <g id="svg_72" stroke="null"/>
   <g id="svg_73" stroke="null"/>
   <g id="svg_74" stroke="null"/>
   <g id="svg_75" stroke="null"/>
   <g id="svg_76" stroke="null"/>
   <g id="svg_77" stroke="null"/>
   <g id="svg_78" stroke="null"/>
  </g>
  <g filter="url(#_blur)" transform="rotate(2.68483 85.9495 240.741)" opacity="0.66" stroke="null">
   <g stroke="null" data-name="sign 路 ecommerce 路 shopping 路 tag 路 sale" id="svg_79">
    <path stroke="null" d="m73.97782,256.28866a4.07301,4.51849 0 0 0 -5.76059,0l-1.91974,2.12971a1.35767,1.50616 0 0 1 -1.9211,0l-1.91974,-2.12971a1.35767,1.50616 0 0 1 0,-2.13122l3.83949,-4.25943a1.35767,1.50616 0 0 0 -1.91974,-2.12971l-3.83949,4.26093a4.07301,4.51849 0 0 0 0,6.39065l1.91974,2.12971a4.07301,4.51849 0 0 0 5.76059,0l1.91974,-2.12971a1.35767,1.50616 0 0 1 1.9211,0l1.91974,2.12821a1.35767,1.50616 0 0 1 0,2.13122l-3.83949,4.26093a1.35767,1.50616 0 1 0 1.91974,2.12971l3.84085,-4.25943a4.07301,4.51849 0 0 0 0,-6.39065l-1.9211,-2.13122z"/>
    <path stroke="null" d="m89.47562,247.10107l-14.4008,-9.58522a1.35767,1.50616 0 0 0 -1.65771,0.22592l-1.9211,2.13122a1.35767,1.50616 0 0 0 -0.20365,1.83902l8.64021,15.97586a1.35767,1.50616 0 1 0 2.3284,-1.55135l-2.33519,-4.31666l4.26037,-4.72634l3.89108,2.5906a1.35767,1.50616 0 0 0 1.3984,-2.58307zm-10.99034,2.05742l-4.3201,-7.98266l0.42088,-0.46691l7.19565,4.79261l-3.29642,3.65696z"/>
    <path stroke="null" d="m97.81442,236.23561l-4.80072,5.32579l-10.55995,-11.71493a1.35767,1.50616 0 1 0 -1.91974,2.12971l11.51983,12.77979a1.35767,1.50616 0 0 0 1.91974,0l5.76059,-6.39065a1.35767,1.50616 0 0 0 -1.91974,-2.12971z"/>
    <path stroke="null" d="m106.85243,226.20909l-3.84085,4.26093l-3.83949,-4.26093l1.91974,-2.12971a1.35767,1.50616 0 0 0 -1.91974,-2.12971l-1.91974,2.12971l-3.84085,-4.25943l3.84085,-4.26093a1.35767,1.50616 0 1 0 -1.91974,-2.12971l-4.80072,5.32579a1.35767,1.50616 0 0 0 0,2.12971l11.51983,12.77979a1.35767,1.50616 0 0 0 1.91974,0l4.80072,-5.32579a1.35767,1.50616 0 1 0 -1.91974,-2.12971z"/>
    <path stroke="null" d="m121.71484,216.98084l1.50973,-10.88955a6.78835,7.53081 0 0 0 -7.71021,-8.58513l-20.90811,3.46417a12.29234,13.63679 0 0 0 -6.83722,3.82264l-40.67307,45.10504a6.78835,7.53081 0 0 0 0,10.65007l19.20288,21.30316a6.78835,7.53081 0 0 0 9.60008,0l22.26578,-24.70106c2.3284,12.62616 7.56629,20.63442 13.6921,20.63442c8.37411,0 14.93437,-15.21224 14.93437,-34.64173c0,-10.16358 -1.85322,-19.64186 -5.07633,-26.16204zm-47.73702,62.73768a4.1694,4.62542 0 0 1 -5.76059,0l-19.19881,-21.30015a4.07301,4.51849 0 0 1 0,-6.39065l40.66628,-45.11408a9.56886,10.61543 0 0 1 5.31799,-2.97166l20.90811,-3.46417a4.10424,4.55313 0 0 1 0.61502,-0.05121a4.07301,4.51849 0 0 1 4.02006,5.21283l-1.05219,7.59407a13.984,15.51347 0 0 0 -2.64338,-2.79996a5.39131,5.98097 0 0 0 -1.58576,-4.19767a5.56645,6.17527 0 0 0 -7.68034,0a5.43068,6.02465 0 1 0 8.48136,7.35308a15.1611,16.81931 0 0 1 2.83074,3.9597l-1.55046,11.18175a9.44259,10.47536 0 0 1 -2.67461,5.85144l-40.69343,45.13667zm37.87898,-68.20505a5.15914,5.72342 0 0 1 1.92925,0.43076a2.75335,3.0545 0 0 1 -0.44667,0.67928a2.75064,3.05148 0 1 1 0.29869,-3.85728a7.63146,8.46614 0 0 0 -1.78126,-0.26508a1.35767,1.50616 0 0 0 0,3.01232zm0,63.25882c-4.90662,0 -9.52677,-8.28389 -11.35691,-20.21571l16.08431,-17.84501a12.12942,13.45605 0 0 0 3.43762,-7.53081l0.95037,-6.81237a53.30618,59.13645 0 0 1 3.10363,20.7745c0,17.14465 -5.59631,31.62941 -12.21903,31.62941z"/>
   </g>
  </g>
  <g opacity="0.51" stroke-width="16">
   <path d="m727.6763,120.67688a4.13,4.13 0 0 1 -1.066,-0.137c-1.931,-0.516 -3.118,-2.317 -4.266,-4.059a9.459,9.459 0 0 0 -2.489,-2.925a9.558,9.558 0 0 0 -3.842,-0.718c-2.063,-0.126 -4.193,-0.261 -5.579,-1.644s-1.518,-3.517 -1.645,-5.579a9.574,9.574 0 0 0 -0.719,-3.838a9.44,9.44 0 0 0 -2.926,-2.49c-1.742,-1.148 -3.543,-2.335 -4.058,-4.266c-0.5,-1.852 0.445,-3.739 1.354,-5.565a9.7,9.7 0 0 0 1.323,-3.779a9.706,9.706 0 0 0 -1.323,-3.775c-0.909,-1.825 -1.849,-3.713 -1.354,-5.565c0.515,-1.931 2.317,-3.118 4.058,-4.266a9.439,9.439 0 0 0 2.926,-2.489a9.575,9.575 0 0 0 0.718,-3.842c0.128,-2.061 0.259,-4.192 1.645,-5.579s3.517,-1.518 5.579,-1.645a9.574,9.574 0 0 0 3.838,-0.719a9.46,9.46 0 0 0 2.494,-2.92c1.148,-1.742 2.335,-3.543 4.266,-4.059c1.846,-0.491 3.739,0.445 5.566,1.354a9.7,9.7 0 0 0 3.774,1.318a9.7,9.7 0 0 0 3.774,-1.323c1.827,-0.909 3.72,-1.845 5.566,-1.354c1.931,0.516 3.118,2.317 4.266,4.059a9.459,9.459 0 0 0 2.494,2.925a9.558,9.558 0 0 0 3.842,0.718c2.061,0.127 4.193,0.259 5.579,1.645s1.513,3.517 1.64,5.579a9.574,9.574 0 0 0 0.719,3.838a9.44,9.44 0 0 0 2.926,2.49c1.742,1.148 3.543,2.335 4.058,4.266c0.495,1.852 -0.445,3.739 -1.354,5.565a9.7,9.7 0 0 0 -1.323,3.779a9.706,9.706 0 0 0 1.323,3.775c0.909,1.826 1.849,3.713 1.354,5.565c-0.515,1.931 -2.317,3.118 -4.058,4.266a9.439,9.439 0 0 0 -2.926,2.494a9.575,9.575 0 0 0 -0.718,3.842c-0.128,2.061 -0.259,4.192 -1.645,5.579s-3.517,1.513 -5.579,1.64a9.574,9.574 0 0 0 -3.842,0.719a9.46,9.46 0 0 0 -2.49,2.925c-1.148,1.742 -2.335,3.543 -4.266,4.059c-1.846,0.492 -3.739,-0.445 -5.566,-1.354a9.7,9.7 0 0 0 -3.774,-1.323a9.7,9.7 0 0 0 -3.774,1.323a10.725,10.725 0 0 1 -4.5,1.49zm0,-68a2.132,2.132 0 0 0 -0.553,0.068c-1.2,0.32 -2.17,1.8 -3.114,3.227a10.676,10.676 0 0 1 -3.156,3.556a10.837,10.837 0 0 1 -4.72,0.984c-1.768,0.109 -3.437,0.212 -4.289,1.063s-0.954,2.521 -1.063,4.289a10.836,10.836 0 0 1 -0.983,4.72a10.686,10.686 0 0 1 -3.548,3.156c-1.43,0.943 -2.907,1.917 -3.228,3.113c-0.3,1.121 0.436,2.6 1.213,4.157a11,11 0 0 1 1.528,4.667a11,11 0 0 1 -1.533,4.667c-0.78,1.562 -1.511,3.033 -1.213,4.157c0.321,1.2 1.8,2.17 3.228,3.113a10.69,10.69 0 0 1 3.556,3.157a10.837,10.837 0 0 1 0.984,4.72c0.109,1.768 0.212,3.437 1.063,4.289s2.521,0.954 4.289,1.063a10.822,10.822 0 0 1 4.72,0.983a10.686,10.686 0 0 1 3.156,3.556c0.943,1.429 1.917,2.907 3.113,3.227c1.121,0.3 2.6,-0.434 4.158,-1.212a10.993,10.993 0 0 1 4.666,-1.533a10.993,10.993 0 0 1 4.666,1.533c1.562,0.778 3.039,1.512 4.158,1.212c1.2,-0.32 2.17,-1.8 3.114,-3.227a10.676,10.676 0 0 1 3.156,-3.556a10.837,10.837 0 0 1 4.72,-0.984c1.768,-0.109 3.437,-0.212 4.289,-1.063s0.954,-2.521 1.063,-4.289a10.836,10.836 0 0 1 0.983,-4.72a10.686,10.686 0 0 1 3.556,-3.156c1.43,-0.943 2.907,-1.917 3.228,-3.113c0.3,-1.121 -0.436,-2.6 -1.213,-4.157a11,11 0 0 1 -1.533,-4.667a11,11 0 0 1 1.533,-4.667c0.777,-1.562 1.511,-3.036 1.213,-4.157c-0.321,-1.2 -1.8,-2.17 -3.228,-3.113a10.69,10.69 0 0 1 -3.556,-3.157a10.837,10.837 0 0 1 -0.984,-4.72c-0.109,-1.768 -0.212,-3.437 -1.063,-4.289s-2.521,-0.954 -4.289,-1.063a10.822,10.822 0 0 1 -4.72,-0.983a10.686,10.686 0 0 1 -3.156,-3.551c-0.943,-1.429 -1.917,-2.907 -3.113,-3.227c-1.12,-0.3 -2.595,0.434 -4.158,1.212a10.993,10.993 0 0 1 -4.666,1.528a10.993,10.993 0 0 1 -4.666,-1.533a9.35,9.35 0 0 0 -3.605,-1.28l-0.003,0z"/>
   <path d="m743.9223,99.70788a5.77,5.77 0 1 1 4.294,-9.62l0,0a5.767,5.767 0 0 1 -4.294,9.62zm0,-9.537a3.769,3.769 0 1 0 2.809,1.252a3.753,3.753 0 0 0 -2.813,-1.252l0.004,0z"/>
   <path d="m727.9833,83.18188a5.77,5.77 0 1 1 4.294,-9.62l0,0a5.767,5.767 0 0 1 -4.294,9.62zm0,-9.537a3.769,3.769 0 1 0 2.81,1.252l0,0a3.767,3.767 0 0 0 -2.814,-1.252l0.004,0z"/>
   <path d="m722.6233,99.66088a1,1 0 0 1 -0.7,-1.716l26.656,-25.968a1,1 0 0 1 1.4,1.433l-26.658,25.967a1,1 0 0 1 -0.698,0.284z"/>
  </g>
 </g>
 <defs>
  <filter height="200%" width="200%" y="-50%" x="-50%" id="_blur">
   <feGaussianBlur stdDeviation="1" in="SourceGraphic"/>
  </filter>
 </defs>
</svg>